<?xml version="1.0" encoding="utf-8"?>
<!-- Generator: Adobe Illustrator 16.0.0, SVG Export Plug-In . SVG Version: 6.00 Build 0)  -->
<!DOCTYPE svg PUBLIC "-//W3C//DTD SVG 1.1//EN" "http://www.w3.org/Graphics/SVG/1.1/DTD/svg11.dtd">
<svg version="1.1" id="Capa_1" xmlns="http://www.w3.org/2000/svg" xmlns:xlink="http://www.w3.org/1999/xlink" x="0px" y="0px"
	 width="78px" height="77.75px" viewBox="2.5 -71.25 78 77.75" enable-background="new 2.5 -71.25 78 77.75" xml:space="preserve">
<path fill="none" stroke="#DBC62C" stroke-width="4" stroke-linecap="round" stroke-linejoin="round" stroke-miterlimit="10" d="
	M33.209-66.649c-6.897,3.746-3.745,7.165,0,12.685c3.746,5.519-1.664,9.814-1.664,9.814"/>
<path fill="none" stroke="#DBC62C" stroke-width="4" stroke-linecap="round" stroke-linejoin="round" stroke-miterlimit="10" d="
	M53.474-66.649c-6.896,3.746-3.744,7.165,0.002,12.685c3.746,5.519-1.666,9.814-1.666,9.814"/>
<path d="M77.809-38.009c-0.432-1.13-1.521-1.936-2.807-1.936H41.666H8.33c-1.286,0-2.375,0.806-2.807,1.936
	c-0.207,0.407-0.336,0.862-0.336,1.351v4.095c0,0.897,0.045,1.784,0.109,2.666C6.256-16.875,14.176-5.771,25.333-0.264
	c0.142,2.911,2.54,5.23,5.485,5.23c0.033,0,0.065-0.004,0.1-0.004c0.018,0,0.032,0.004,0.049,0.004h10.699h10.699
	c0.017,0,0.031-0.004,0.049-0.004c0.034,0,0.066,0.004,0.1,0.004c2.945,0,5.344-2.319,5.485-5.23
	c11.157-5.507,19.077-16.611,20.036-29.633c0.064-0.882,0.109-1.769,0.109-2.666v-4.095C78.145-37.146,78.016-37.602,77.809-38.009z
	 M72.941-32.214c0,18.204-14.483,31.47-30.805,31.47h-0.471h-0.471c-16.321,0-30.805-13.266-30.805-31.47v-2.73h31.275h31.275
	V-32.214z"/>
</svg>
